<svg width="311" height="114" fill="none" xmlns="http://www.w3.org/2000/svg"><path d="M.653 19.251a5 5 0 0 1 4.304-5.61L103.616.653a5 5 0 0 1 5.609 4.304l11.748 89.23a5 5 0 0 1-4.305 5.61L18.01 112.786a5 5 0 0 1-5.61-4.305L.653 19.251ZM143.256 82h-8.064l-14.688-36.936h7.38c.648 0 1.188.156 1.62.468.456.312.768.708.936 1.188l7.128 19.728c.408 1.152.744 2.28 1.008 3.384.288 1.104.54 2.208.756 3.312.216-1.104.456-2.208.72-3.312a34.32 34.32 0 0 1 1.08-3.384l7.308-19.728c.168-.48.468-.876.9-1.188.432-.312.948-.468 1.548-.468h7.02L143.256 82Zm29.355-36.936V82h-8.892V45.064h8.892Zm1.332-10.764c0 .768-.156 1.488-.468 2.16a5.78 5.78 0 0 1-1.26 1.764 5.97 5.97 0 0 1-1.8 1.224 5.78 5.78 0 0 1-2.232.432c-.768 0-1.5-.144-2.196-.432a6.108 6.108 0 0 1-1.764-1.224 6.108 6.108 0 0 1-1.224-1.764 5.425 5.425 0 0 1-.432-2.16c0-.792.144-1.536.432-2.232a5.97 5.97 0 0 1 1.224-1.8 5.574 5.574 0 0 1 1.764-1.188 5.309 5.309 0 0 1 2.196-.468c.792 0 1.536.156 2.232.468a5.473 5.473 0 0 1 1.8 1.188 5.659 5.659 0 0 1 1.26 1.8c.312.696.468 1.44.468 2.232Zm30.671 17.964c-.24.384-.492.66-.756.828-.264.144-.6.216-1.008.216-.432 0-.9-.12-1.404-.36a41.73 41.73 0 0 0-1.692-.792 14.06 14.06 0 0 0-2.232-.828c-.816-.24-1.788-.36-2.916-.36-1.752 0-3.132.372-4.14 1.116-1.008.744-1.512 1.716-1.512 2.916 0 .792.252 1.464.756 2.016.528.528 1.212.996 2.052 1.404.864.408 1.836.78 2.916 1.116 1.08.312 2.184.66 3.312 1.044 1.128.384 2.232.828 3.312 1.332 1.08.48 2.04 1.104 2.88 1.872a8.153 8.153 0 0 1 2.052 2.7c.528 1.056.792 2.328.792 3.816 0 1.776-.324 3.42-.972 4.932a11.012 11.012 0 0 1-2.844 3.888c-1.248 1.08-2.796 1.932-4.644 2.556-1.824.6-3.924.9-6.3.9-1.272 0-2.52-.12-3.745-.36a21.4 21.4 0 0 1-3.491-.936 20.346 20.346 0 0 1-3.096-1.44 15.366 15.366 0 0 1-2.484-1.8l2.052-3.384c.264-.408.576-.72.936-.936.36-.216.816-.324 1.368-.324.552 0 1.068.156 1.548.468.504.312 1.08.648 1.728 1.008.648.36 1.404.696 2.268 1.008.888.312 2.004.468 3.348.468 1.056 0 1.956-.12 2.7-.36.768-.264 1.392-.6 1.872-1.008.504-.408.864-.876 1.08-1.404.24-.552.36-1.116.36-1.692 0-.864-.264-1.572-.792-2.124-.504-.552-1.188-1.032-2.052-1.44-.84-.408-1.812-.768-2.916-1.08-1.08-.336-2.196-.696-3.348-1.08a35.975 35.975 0 0 1-3.348-1.332 12.252 12.252 0 0 1-2.916-1.98c-.84-.792-1.524-1.764-2.052-2.916-.504-1.152-.756-2.544-.756-4.176 0-1.512.3-2.952.9-4.32a10.057 10.057 0 0 1 2.628-3.564c1.176-1.032 2.628-1.848 4.356-2.448 1.752-.624 3.768-.936 6.048-.936 2.544 0 4.86.42 6.948 1.26 2.088.84 3.828 1.944 5.22 3.312l-2.016 3.204Zm18.973-7.2V82h-8.892V45.064h8.892Zm1.332-10.764c0 .768-.156 1.488-.468 2.16a5.78 5.78 0 0 1-1.26 1.764 5.97 5.97 0 0 1-1.8 1.224 5.78 5.78 0 0 1-2.232.432c-.768 0-1.5-.144-2.196-.432a6.108 6.108 0 0 1-1.764-1.224 6.108 6.108 0 0 1-1.224-1.764 5.425 5.425 0 0 1-.432-2.16c0-.792.144-1.536.432-2.232a5.97 5.97 0 0 1 1.224-1.8 5.574 5.574 0 0 1 1.764-1.188 5.309 5.309 0 0 1 2.196-.468c.792 0 1.536.156 2.232.468a5.473 5.473 0 0 1 1.8 1.188 5.659 5.659 0 0 1 1.26 1.8c.312.696.468 1.44.468 2.232Zm24.515 10.188c2.76 0 5.256.444 7.488 1.332 2.256.888 4.176 2.148 5.76 3.78 1.584 1.632 2.808 3.624 3.672 5.976.864 2.352 1.296 4.98 1.296 7.884 0 2.928-.432 5.568-1.296 7.92-.864 2.352-2.088 4.356-3.672 6.012-1.584 1.656-3.504 2.928-5.76 3.816-2.232.888-4.728 1.332-7.488 1.332-2.76 0-5.268-.444-7.524-1.332-2.256-.888-4.188-2.16-5.796-3.816-1.584-1.656-2.82-3.66-3.708-6.012-.864-2.352-1.296-4.992-1.296-7.92 0-2.904.432-5.532 1.296-7.884.888-2.352 2.124-4.344 3.708-5.976 1.608-1.632 3.54-2.892 5.796-3.78 2.256-.888 4.764-1.332 7.524-1.332Zm0 31.212c3.072 0 5.34-1.032 6.804-3.096 1.488-2.064 2.232-5.088 2.232-9.072 0-3.984-.744-7.02-2.232-9.108-1.464-2.088-3.732-3.132-6.804-3.132-3.12 0-5.424 1.056-6.912 3.168-1.488 2.088-2.232 5.112-2.232 9.072 0 3.96.744 6.984 2.232 9.072 1.488 2.064 3.792 3.096 6.912 3.096Zm25.154 6.3V45.064h5.436c1.152 0 1.908.54 2.268 1.62l.612 2.916a21.126 21.126 0 0 1 2.34-2.088 17.605 17.605 0 0 1 2.628-1.62 13.759 13.759 0 0 1 2.988-1.044c1.056-.24 2.208-.36 3.456-.36 2.016 0 3.804.348 5.364 1.044 1.56.672 2.856 1.632 3.888 2.88 1.056 1.224 1.848 2.7 2.376 4.428.552 1.704.828 3.588.828 5.652V82h-8.892V58.492c0-2.256-.528-3.996-1.584-5.22-1.032-1.248-2.592-1.872-4.68-1.872a9.26 9.26 0 0 0-4.32 1.044c-1.344.696-2.616 1.644-3.816 2.844V82h-8.892Z" fill="#1A1A1A"/><path d="M33.488 62.596V82H21.32V29.548h17.064c3.792 0 7.02.396 9.684 1.188 2.688.768 4.872 1.848 6.552 3.24 1.704 1.392 2.94 3.036 3.708 4.932.768 1.896 1.152 3.96 1.152 6.192 0 1.704-.228 3.312-.684 4.824a14.597 14.597 0 0 1-2.052 4.212c-.888 1.272-1.992 2.412-3.312 3.42-1.296 1.008-2.796 1.836-4.5 2.484.816.408 1.572.912 2.268 1.512.72.6 1.344 1.332 1.872 2.196L64.232 82H53.216c-2.04 0-3.504-.768-4.392-2.304l-8.712-15.228c-.384-.672-.84-1.152-1.368-1.44-.504-.288-1.224-.432-2.16-.432h-3.096Zm0-8.388h4.896c1.656 0 3.06-.204 4.212-.612 1.176-.432 2.136-1.02 2.88-1.764a6.67 6.67 0 0 0 1.62-2.592c.336-1.008.504-2.088.504-3.24 0-2.304-.756-4.104-2.268-5.4-1.488-1.296-3.804-1.944-6.948-1.944h-4.896v15.552Zm51.699-10.116c2.472 0 4.728.384 6.768 1.152 2.064.768 3.828 1.884 5.292 3.348 1.488 1.464 2.64 3.264 3.456 5.4.84 2.112 1.26 4.512 1.26 7.2 0 .84-.036 1.524-.108 2.052-.072.528-.204.948-.396 1.26a1.5 1.5 0 0 1-.792.648c-.312.12-.72.18-1.224.18H77.915c.36 3.12 1.308 5.388 2.844 6.804 1.536 1.392 3.516 2.088 5.94 2.088 1.296 0 2.412-.156 3.348-.468.936-.312 1.764-.66 2.484-1.044.744-.384 1.416-.732 2.016-1.044a4.295 4.295 0 0 1 1.944-.468c.888 0 1.56.324 2.016.972l3.24 3.996c-1.152 1.32-2.4 2.4-3.744 3.24a20.002 20.002 0 0 1-4.104 1.944 21.724 21.724 0 0 1-4.212.936 29.272 29.272 0 0 1-3.996.288c-2.616 0-5.076-.42-7.38-1.26a17.348 17.348 0 0 1-6.012-3.816c-1.704-1.68-3.06-3.768-4.068-6.264-.984-2.496-1.476-5.4-1.476-8.712 0-2.496.42-4.86 1.26-7.092.864-2.232 2.088-4.188 3.672-5.868 1.608-1.68 3.54-3.012 5.796-3.996 2.28-.984 4.848-1.476 7.704-1.476Zm.216 7.704c-2.136 0-3.804.612-5.004 1.836-1.2 1.2-1.992 2.94-2.376 5.22h13.932c0-.888-.12-1.752-.36-2.592a5.756 5.756 0 0 0-1.116-2.232c-.504-.672-1.176-1.212-2.016-1.62-.84-.408-1.86-.612-3.06-.612Z" fill="#fff"/></svg>